<svg width="35" height="35" viewBox="0 0 35 35" fill="none" xmlns="http://www.w3.org/2000/svg">
<path opacity="0.8" fill-rule="evenodd" clip-rule="evenodd" d="M9.79998 0.599976C4.71896 0.599976 0.599976 4.71896 0.599976 9.79998V25.8C0.599976 30.881 4.71896 35 9.79998 35H25.8C30.881 35 35 30.881 35 25.8V9.79998C35 4.71896 30.881 0.599976 25.8 0.599976H9.79998Z" fill="#F0FD81"/>
<path fill-rule="evenodd" clip-rule="evenodd" d="M22.9494 9.92791C22.2622 9.24068 21.1484 9.24111 20.4617 9.92885L18.6292 11.7642L23.875 17.01L25.7002 15.1373C26.3728 14.4472 26.3657 13.3442 25.6843 12.6628L22.9494 9.92791ZM22.9537 17.9552L17.6966 12.6981L11.0988 19.3059C10.6315 19.7739 10.3568 20.4004 10.329 21.0614L10.2012 24.0996C10.1696 24.8499 10.7689 25.4754 11.5193 25.4755L14.5115 25.4756C15.2228 25.4756 15.9039 25.1883 16.4005 24.6788L22.9537 17.9552Z" fill="#161616"/>
</svg>
