<svg width="35" height="35" viewBox="0 0 35 35" fill="none" xmlns="http://www.w3.org/2000/svg">
<path opacity="0.8" fill-rule="evenodd" clip-rule="evenodd" d="M34.6476 4.79131C34.9853 2.20911 32.8573 0.0811318 30.2751 0.418851C26.5007 0.912494 20.0888 2.26786 15.9562 6.10067C14.6413 7.32019 13.4264 8.79325 12.347 10.3081L9.24863 9.86547C8.37617 9.74084 7.49594 10.0342 6.87275 10.6574L1.78158 15.7486C0.150058 17.3801 1.08137 20.1741 3.36551 20.5004L8.11726 21.1792L8.11756 21.1771C8.3274 21.6106 8.61122 22.0126 8.96144 22.3628L12.7036 26.105C13.0538 26.4552 13.4558 26.739 13.8893 26.9488L13.8873 26.9491L14.5661 31.7009C14.8924 33.985 17.6863 34.9163 19.3179 33.2848L24.409 28.1936C25.0322 27.5705 25.3256 26.6902 25.201 25.8178L24.7584 22.7194C26.2732 21.64 27.7463 20.4251 28.9658 19.1102C32.7986 14.9777 34.1539 8.56571 34.6476 4.79131Z" fill="#F0FD81"/>
<path d="M8.28681 26.7792L3.76133 31.3047M4.8927 23.3851L2.62996 25.6478M11.6809 30.1733L9.41818 32.436" stroke="#FAFAFA" stroke-width="2.4" stroke-linecap="round"/>
<path  d="M20.7315 9.8087C19.4818 11.0584 19.4818 13.0845 20.7315 14.3342C21.9812 15.5839 24.0073 15.5839 25.257 14.3342C26.5067 13.0845 26.5067 11.0584 25.257 9.8087C24.0073 8.55902 21.9812 8.55902 20.7315 9.8087Z" fill="#161616"/>
</svg>
