<svg width="25" height="24" viewBox="0 0 25 24" fill="none" xmlns="http://www.w3.org/2000/svg">
<path opacity="0.3" fill-rule="evenodd" clip-rule="evenodd" d="M2.0953 4.36958C1.88423 2.7557 3.21421 1.42572 4.82809 1.63679C7.18709 1.94532 11.1946 2.79242 13.7774 5.18793C14.5992 5.95013 15.3585 6.87079 16.0332 7.81757L17.9697 7.54093C18.5149 7.46303 19.0651 7.64641 19.4546 8.0359L22.6366 11.2179C23.6563 12.2376 23.0742 13.9838 21.6466 14.1877L18.6768 14.612L18.6766 14.6107C18.5454 14.8816 18.368 15.1329 18.1491 15.3518L15.8103 17.6906C15.5914 17.9095 15.3402 18.0869 15.0692 18.218L15.0705 18.2182L14.6462 21.1881C14.4423 22.6157 12.6961 23.1977 11.6764 22.178L8.4944 18.996C8.10491 18.6065 7.92153 18.0564 7.99942 17.5111L8.27606 15.5747C7.32929 14.9 6.40864 14.1407 5.64644 13.3189C3.25094 10.7361 2.40383 6.72858 2.0953 4.36958Z" fill="#161616"/>
<path d="M18.5708 18.112L21.3992 20.9404M20.6921 15.9907L22.1063 17.4049M16.4494 20.2333L17.8637 21.6475" stroke="#F0FD81" stroke-width="1.5" stroke-linecap="round"/>
<path d="M10.7928 7.50546C11.5739 8.28651 11.5739 9.55284 10.7928 10.3339C10.0118 11.1149 8.74544 11.1149 7.96439 10.3339C7.18334 9.55284 7.18334 8.28651 7.96439 7.50546C8.74544 6.72441 10.0118 6.72441 10.7928 7.50546Z" fill="#161616"/>
</svg>
